<?xml version="1.0" encoding="UTF-8"?>
<svg id="Layer_1" data-name="Layer 1" xmlns="img/logo.svg" viewBox="0 0 141.73 141.73">
  <defs>
    <style>
      .cls-1 {
        fill: #fff;
      }
    </style>
  </defs>
  <g id="_1" data-name="1">
    <g>
      <path class="cls-1" d="M53.77,37.46c-.97-.78-1.7-1.18-2.21-1.18-.3,0-.51.12-.65.37-.75,1.32-1.12,2.21-1.12,2.7,0,.3.14.46.41.46.02.01.62.25,1.79.7.41.17.72.26.93.26.16,0,.26-.05.29-.15.2-.29.42-.88.67-1.76.07-.31.12-.56.12-.77,0-.29-.07-.5-.24-.62ZM59.79,36.32h.07s-.05,0-.07,0Z"/>
      <path class="cls-1" d="M63.96,40.86c-.37-.21-.67-.36-.91-.43-.56-.2-.89-.31-1.01-.34-.31-.06-.52-.1-.63-.1-.06,0-.15.17-.27.51-.09.24-.21.62-.37,1.14-.06.31-.14.7-.22,1.17l-.05.52c.2.05.67.22,1.43.51.61.27,1.07.48,1.38.61h.04c.07,0,.16-.11.27-.31.07-.17.2-.47.35-.89.16-.47.27-.83.34-1.08.05-.47.09-.75.09-.83,0-.16-.15-.32-.42-.47Z"/>
      <path class="cls-1" d="M75.85,34c-1.61,6.25-4.7,11.26-9.29,15.01-5.07,4.16-11.39,6.24-18.95,6.24-3.12.01-4.78-.1-4.97-.36-.14-.21.69-.55,2.53-1.03,7.01-1.81,10.69-2.78,11.03-2.92,5.21-2.3,9.39-4.77,12.55-7.41.02-.02.04-.03.06-.05,2.09-1.73,3.64-4.04,4.52-6.6,1.34-3.95,1.62-7.57.85-10.86-.56-2.36-1.83-5.05-3.81-8.08-1.73-2.63-3.86-5.05-6.28-7.19-1.48,3.86-5.08,9.78-13.57,17.83-1.68,1.59-3.09,3.47-4,5.6,0,.01-.01.02-.01.04-.61,1.36-.9,2.91-.9,4.67,0,.85.11,1.69.33,2.54.23.78.61,1.55,1.13,2.3.55.69,1.16,1.25,1.87,1.66.8.41,1.68.62,2.64.62.9,0,1.75-.25,2.54-.7.85-.54,1.52-1.15,2.01-1.84.6-.71,1.07-1.53,1.39-2.41.37-.91.56-1.74.56-2.49,0-.97-.16-1.72-.49-2.23-.22-.45-.55-.84-.98-1.16-.35-.22-.69-.38-1.01-.48-.31-.07-.48-.18-.48-.31v-3.29c0-.12.02-.22.08-.28.02-.02.04-.03.08-.03s.13.03.28.11c.04.02.13.08.29.18.17.1.3.17.41.22.21.13.57.31,1.04.52.23.11.61.27,1.14.42.47.11.84.17,1.13.17h.25c.28,0,.64-.1,1.04-.31.3-.13.71-.39,1.2-.78.41-.4.72-.79.96-1.16.27-.48.38-.91.38-1.26v-.11c0-.38-.12-.75-.42-1.13-.37-.41-.9-.74-1.59-.99-.16.35-.27.54-.33.6-.04.08-.09.11-.1.11-.02,0-.02-.03-.02-.04,0-.03,0-.07.02-.13.01-.26.02-.55.04-.87.04-.67.1-1.22.14-1.61.03-.48.11-1.01.19-1.61.1-.47.21-.69.35-.69.11-.03.22-.03.33-.03.57,0,1.08.28,1.49.8.47.65.79,1.45.96,2.39.18.76.27,1.55.27,2.35,0,.3-.02.61-.06.9-.12,1.22-.36,2.34-.7,3.34-.38,1.06-.94,1.96-1.63,2.74-.69.75-1.49,1.2-2.45,1.36-.01,0-.04.02-.07.02h-.25c0,2.26-.29,4.44-.87,6.51-.26.88-.57,1.69-.95,2.47-.45.87-.94,1.61-1.48,2.19-.57.59-1.28,1.13-2.13,1.58-.79.39-1.75.62-2.87.71h-.23c-.94,0-1.85-.25-2.7-.71-.86-.47-1.68-1.19-2.44-2.17-.74-.98-1.29-2.08-1.67-3.3-.39-1.27-.58-2.63-.58-4.04,0-1.92.18-3.51.54-4.83.33-1.32.87-2.61,1.59-3.87.17-.3.35-.6.54-.9.91-1.45,2.1-2.72,3.41-3.85,3.85-3.29,13.68-12.41,15.33-20.87,0,0,.01.03.02.09v-.09c4.31,2.71,7.54,6.88,9.65,12.51,2.1,5.63,2.47,11.04,1.15,16.24Z"/>
    </g>
    <g>
      <path class="cls-1" d="M49.37,62.61c-.32-1-.81-1.83-1.47-2.46-.66-.75-1.51-1.17-2.55-1.25h-.35c-1.01,0-1.91.36-2.72,1.08-.78.63-1.57,1.67-2.38,3.11-.6,1.21-1.21,2.65-1.81,4.32-.84,2.72-1.32,4.26-1.43,4.63t0,.02c-.45,1.95-.73,3.21-.81,3.78-.38,1.76-.56,2.68-.56,2.77.03,0,.08-.19.17-.56-.06.34-.09.94-.09,1.77,0,.61.25.98.74,1.12.31,0,.56-.33.73-.99.26-.69.51-1.54.74-2.55.08-.26.24-.79.47-1.6.21-.72.38-1.28.52-1.69.35-1.29.77-2.43,1.26-3.41.54-1.1,1.09-1.92,1.64-2.47.6-.6,1.27-.9,1.99-.9h.26c.83.08,1.47.33,1.9.73.46.58.79,1.08.99,1.51.03.09.22.55.57,1.39.11.4.33.65.64.73h.18c.31,0,.62-.24.9-.73.38-.52.65-1.27.83-2.25.17-.89.26-1.87.26-2.94-.09-1.24-.29-2.29-.61-3.16Z"/>
      <path class="cls-1" d="M95.09,49.16c.46-.46.87-.86,1.22-1.2l3.2-2.86c.39-.33.98-.83,1.77-1.51.84-.72,1.46-1.26,1.86-1.62l3.34-2.98c.42-.31.92-.72,1.51-1.24.63-.56,1.04-.9,1.23-1.04.49-.46.91-.85,1.27-1.17.24-.26.41-.4.51-.43.02,0,.05,0,.09.02.06.01.1.07.13.17s.04.25.04.45c0,.64-.03,1.11-.09,1.4-.07.35-.13.56-.17.63-.11.2-.53.62-1.25,1.25-.49.46-1.41,1.29-2.76,2.49-.73.7-1.96,1.8-3.67,3.31-.43.37-1.06.92-1.89,1.67-.86.76-1.5,1.32-1.93,1.68l-3.35,3.23h-.04s.16-.16.16-.16c-1,.94-1.68,1.64-2.02,2.12-.04-.38-.1-.89-.16-1.54-.04-.55-.05-.93-.06-1.15.01-.37.07-.59.16-.67.11-.11.41-.4.9-.87Z"/>
      <path class="cls-1" d="M72.8,53.78c-.64-.19-1.07-.57-1.29-1.15l-.03-.17c-.02-.11-.04-.21-.07-.29-.04-.36-.08-.66-.12-.88.06-.52.12-.88.17-1.06.08-.41.24-.82.47-1.21.25-.59.61-1.09,1.08-1.48.21-.2.42-.34.63-.42.15-.06.29-.07.44-.06.42-.02.77.16,1.06.53.21.37.37.69.47.96.05.12.08.24.1.36.19.5.31,1.02.38,1.57l.14,1.3,1.09.23c.32.09.62.24.88.45.02.04.03.2.04.48l-.08.74c.02.23,0,.48-.08.74-.07.31-.12.5-.15.55-.15-.14-.47-.25-.98-.34-.47-.18-.78-.28-.93-.29-.04.16-.23.77-.59,1.83-.28.89-.78,1.84-1.49,2.85-.35.58-.93,1.42-1.73,2.51-.9,1.03-1.43,1.63-1.6,1.82-.33.32-.89.81-1.68,1.49l-2.44,1.95.19-.14c-.39.36-.63.56-.74.6-.04.02-.07.01-.07,0-.06-.17.11-.46.53-.88.79-1.13,1.55-2.11,2.28-2.93.28-.34.67-.85,1.18-1.51.53-.68.93-1.18,1.21-1.53l-.34.41s.85-1.18,2.58-3.47c.76-1.14,1.3-2.17,1.62-3.07-1.02-.18-1.72-.35-2.11-.49ZM75.06,51.64c0-.29-.06-.63-.21-1.03-.06-.17-.14-.34-.23-.52-.27-.52-.64-.69-1.12-.5-.19.07-.38.24-.59.51-.27.29-.37.54-.29.75.1.27.4.44.91.51.31.07.82.16,1.53.28Z"/>
    </g>
    <path class="cls-1" d="M129.52,0H12.22C5.47,0,0,5.47,0,12.22v117.3c0,6.74,5.47,12.21,12.22,12.21h117.3c6.74,0,12.21-5.47,12.21-12.21V12.22c0-6.75-5.47-12.22-12.21-12.22ZM137.73,129.52c0,4.53-3.68,8.21-8.21,8.21H12.22c-4.53,0-8.22-3.68-8.22-8.21V12.22c0-4.53,3.69-8.22,8.22-8.22h117.3c4.53,0,8.21,3.69,8.21,8.22v117.3Z"/>
    <path class="cls-1" d="M132.05,54.13c-.12-.11-.21-.17-.3-.17-.17,0-.29.03-.34.08-.36.38-.99,1.16-1.91,2.34-.66.93-1.38,1.78-2.16,2.59-.87.92-1.85,1.89-2.94,2.9-1.1.95-2.45,1.97-4.06,3.07.02-.21.04-.42.04-.65,0-.8-.14-1.76-.39-2.85-.23-1.18-.65-2.28-1.25-3.29-.58-1.09-1.28-1.96-2.08-2.59-.86-.61-1.83-.91-2.9-.91-1.75,0-3.28.3-4.58.91-1.32.58-2.49,1.41-3.5,2.51-.98.97-1.72,2.19-2.2,3.63-.46,1.35-.7,2.68-.7,3.98v.6c0,1.38.25,2.57.74,3.58.57,1.01,1.17,1.8,1.77,2.34.81.72,1.56,1.22,2.25,1.47.63.35,1.36.63,2.16.82.4.15.95.29,1.65.44.34,0,.57.02.68.09-.63.54-1.35,1.05-2.15,1.51-1.99.8-3.92,1.39-5.8,1.77-.67.08-1.19.13-1.6.17-.26.01-.46.03-.61.05h-.3c-1.15,0-2.3-.42-3.42-1.26-1.53-1.13-2.71-2.18-3.55-3.16-1.23-1.41-2.2-2.68-2.89-3.81l-1.99-2.97c-1.61-2.46-3.13-4.91-4.54-7.35-.85-1.48-1.74-2.93-2.59-4.41-.43-.74-.84-1.48-1.24-2.23-.19-.36-.37-.72-.56-1.08-.06-.11-.24-.58-.41-.58-.71,0-.04,4.27.03,4.77.08.61.11,1.23.18,1.84.1.89.38,1.91.87,3.07,1.13,2.31,1.8,3.6,1.99,3.89,1.13,2.02,1.95,3.45,2.47,4.32,1.01,1.68,1.82,3.12,2.46,4.33.69,1.18,1.38,2.5,2.08,3.97.58,1.25.9,2.31.99,3.2.15.81.22,1.63.22,2.47,0,1.12-.14,2.26-.4,3.41-.56,1.62-1.13,2.9-1.68,3.85-1.01,1.67-1.98,3.01-2.9,4.02-1.09,1.09-2.04,1.71-2.84,1.81-1.37.04-2.57.05-3.64.05-.31-.64-.76-1.14-1.34-1.52-.83-.65-1.95-.99-3.33-.99-1.1,0-1.91.27-2.46.82-.7.7-1.2,1.42-1.51,2.17-.29.48-.57,1.36-.83,2.63-.2,1.33-.3,2.22-.3,2.68,0,1.71.38,3.03,1.13,3.98.8.78,1.84,1.16,3.11,1.16.23,0,.47-.01.73-.04.75-.09,1.51-.3,2.3-.64.34-.14.84-.37,1.51-.65.19-.12.47-.18.82-.18.08.09.12.25.12.48,0,.21-.04.49-.12.86-1.51,7.44-5.48,13.17-11.94,17.21-10.6,6.63-22.74,6.55-34.8,7.51,4.34-1.95,7.5-6,9.2-10.45s2.09-9.29,2.07-14.05c3.23-.31,6.11-2.1,8.85-3.84,1.28-.81,2.57-1.63,3.62-2.72,3.29-3.41,3.6-8.72,2.83-13.39-.08-.46-.43-1.06-.84-.83-.18.1-.24.34-.28.55-.33,1.8-.57,3.66-1.37,5.31s-2.27,3.11-4.1,3.31c.19-1.62.07-3.27-.37-4.84-.09-.34-.28-.74-.64-.76-.44-.02-.62.55-.67.99-.36,3.42-1.28,7.36-4.4,8.79-2.81,1.28-6.05-.1-8.82-1.46-1.03-.51-2.06-1.02-3.1-1.52-.03,2.27-.06,4.54-.09,6.81,0,.32,0,.66.18.92.19.28.53.39.84.52,3.25,1.28,5.35,4.81,5.32,8.3s-1.98,6.83-4.79,8.91-6.37,2.99-9.87,2.96c-3.75-.04-7.64-1.21-10.25-3.9-1.7-1.75-2.78-4.04-3.4-6.41-2.16-8.22,1.42-17.62,8.5-22.33,4.63-3.08,10.27-4.15,15.78-4.91s11.14-1.31,16.23-3.53,9.67-6.51,10.57-11.99c-.82.25-1.3,1.07-1.77,1.78-2.48,3.78-6.51,6.32-10.78,7.79-8.79,3.04-18.75,1.98-27.19,5.88-5.6,2.59-10.16,7.3-12.72,12.91s-3.13,12.08-1.77,18.1c.87,3.82,2.55,7.55,5.37,10.28,4.35,4.22,11.34,5.5,16.94,3.17,10.59.11,16.43.15,17.52.09,6.82,0,14.04-.61,20.33-3.44,4.94-2.23,8.92-6.07,10.97-11.12,1.14-3.06,1.72-7.44,1.72-13.14.29,0,.59-.05.92-.13,1.49-.38,2.91-1.15,4.23-2.3,1.35-1.06,2.65-2.62,3.89-4.67,1.1-1.81,1.94-4.01,2.55-6.61.44-1.64.65-3.52.65-5.62,0-.89-.04-1.83-.13-2.82,1.12,1.47,2.13,2.44,3.03,2.9.77.49,1.78.8,3.03.94.19.02.39.04.61.05.04.01.08.01.16.01,1.73-.02,3.52-.35,5.37-.99,1.9-.66,3.53-1.5,4.88-2.51,1.16-.87,2.46-1.97,3.9-3.33,1.21-1.12,2.35-2.25,3.41-3.37.05,0,.17.19.34.56,0,.09.07.3.17.65.09.32.16.61.22.87l.7,1.98c.34.81.7,1.5,1.08,2.08.14.23.3.35.47.35.14-.07.22-.2.22-.39,0-.09-.01-.19-.05-.31-.37-1.35-.59-2.71-.64-4.06-.09-.72-.14-1.44-.14-2.17s.05-1.49.14-2.24l4.88-5.58c1.61-1.84,3.2-3.8,4.76-5.87.37-2.05.59-3.28.64-3.68.04-.32.07-.8.09-1.43.03-.57.06-1.01.09-1.3,0-.95-.11-1.54-.35-1.77ZM113.59,66.54c-1.49,0-2.63-.09-3.41-.26-1.15-.17-2.03-.65-2.64-1.43.35-1.09,1-1.89,1.99-2.37.95-.53,1.95-.78,2.99-.78h.43c1.23.08,2.28.45,3.15,1.08.95.72,1.47,1.77,1.56,3.16-1.25.31-2.6.51-4.07.6Z"/>
  </g>
</svg>